<svg xmlns="http://www.w3.org/2000/svg" version="1.1" xmlns:xlink="http://www.w3.org/1999/xlink" xmlns:svgjs="http://svgjs.dev/svgjs" width="300" height="100" viewBox="0 0 2000 540"><g transform="matrix(1,0,0,1,-1.2121212121212466,1.2448734339198495)"><svg viewBox="0 0 396 107" data-background-color="#111111" preserveAspectRatio="xMidYMid meet" height="540" width="2000" xmlns="http://www.w3.org/2000/svg" xmlns:xlink="http://www.w3.org/1999/xlink"><g id="tight-bounds" transform="matrix(1,0,0,1,0.2400000000000091,-0.24666936561004604)"><svg viewBox="0 0 395.52 107.4933387312201" height="107.4933387312201" width="395.52"><g><svg viewBox="0 0 548.9090123000482 149.1809829889476" height="107.4933387312201" width="395.52"><g><rect width="6.17898070181582" height="149.1809829889476" x="131.03468944688206" y="0" fill="#ffffff" opacity="1" stroke-width="0" stroke="transparent" fill-opacity="1" class="rect-o-0" data-fill-palette-color="primary" rx="1%" id="o-0" data-palette-color="#ffffff"></rect></g><g transform="matrix(1,0,0,1,153.3890123000482,0.3710969726093083)"><svg viewBox="0 0 395.52 148.43878904372897" height="148.43878904372897" width="395.52"><g id="textblocktransform"><svg viewBox="0 0 395.52 148.43878904372897" height="148.43878904372897" width="395.52" id="textblock"><g><svg viewBox="0 0 395.52 148.43878904372897" height="148.43878904372897" width="395.52"><g transform="matrix(1,0,0,1,0,0)"><svg width="395.52" viewBox="0.45000171661376953 -35.29999923706055 212.65000915527344 74.94999694824219" height="148.43878904372897" data-palette-color="#ffffff"><svg></svg><svg></svg><g class="undefined-text-0" data-fill-palette-color="primary" id="text-0"><path xmlns="http://www.w3.org/2000/svg" d="M25.6-34l0.45 3.15h-10.95v30.85h-4v-30.85h-10.65v-3.15zM34.5-35.3v14.25c1.033-1.1 2.317-2.027 3.85-2.78 1.533-0.747 3-1.12 4.4-1.12v0c2.8 0 4.857 0.807 6.17 2.42 1.32 1.62 1.98 3.647 1.98 6.08v0 16.4h-3.95v-15.85c0-1.633-0.39-2.983-1.17-4.05-0.787-1.067-2.03-1.617-3.73-1.65v0c-1.033 0-2.283 0.35-3.75 1.05-1.467 0.7-2.733 1.667-3.8 2.9v0 17.65h-3.95v-34.8zM60.45-29.05v0c-0.767 0-1.4-0.26-1.9-0.78-0.5-0.513-0.75-1.153-0.75-1.92v0c-0.033-0.733 0.207-1.36 0.72-1.88 0.52-0.513 1.163-0.77 1.93-0.77v0c0.733 0 1.377 0.257 1.93 0.77 0.547 0.52 0.82 1.147 0.82 1.88v0c0 0.767-0.273 1.407-0.82 1.92-0.553 0.52-1.197 0.78-1.93 0.78zM62.5 0h-4v-24.25h4zM72.8 0h-2.35v-34.75l3.95-0.55v12.8c0.967-0.733 2.033-1.327 3.2-1.78 1.167-0.447 2.283-0.67 3.35-0.67v0c3.567 0 6.217 1.217 7.95 3.65 1.733 2.433 2.6 5.483 2.6 9.15v0c0 3.7-0.873 6.75-2.62 9.15-1.753 2.4-4.397 3.6-7.93 3.6v0c-1.2 0-2.433-0.243-3.7-0.73-1.267-0.48-2.433-1.137-3.5-1.97v0c-0.133 0.333-0.283 0.683-0.45 1.05-0.167 0.367-0.333 0.717-0.5 1.05zM74.4-19v13.75c0.933 0.833 1.927 1.467 2.98 1.9 1.047 0.433 2.037 0.65 2.97 0.65v0c2.6 0 4.45-0.917 5.55-2.75 1.1-1.833 1.65-4.05 1.65-6.65v0c0-2.7-0.533-4.96-1.6-6.78-1.067-1.813-2.933-2.72-5.6-2.72v0c-0.933 0-1.923 0.223-2.97 0.67-1.053 0.453-2.047 1.097-2.98 1.93zM100.25-6.9v0c0 1.033 0.36 2.017 1.08 2.95 0.713 0.933 1.87 1.4 3.47 1.4v0c1.4 0 2.683-0.35 3.85-1.05 1.167-0.7 2.167-1.533 3-2.5v0-5.55h-6.4c-1.633 0-2.873 0.473-3.72 1.42-0.853 0.953-1.28 2.063-1.28 3.33zM98.15-22.75v0c0.933-0.633 2.25-1.15 3.95-1.55 1.7-0.4 3.05-0.6 4.05-0.6v0c2.8 0 5.077 0.757 6.83 2.27 1.747 1.52 2.62 3.497 2.62 5.93v0 16.7h-2.4l-1.05-2.45c-0.833 0.767-1.917 1.467-3.25 2.1-1.333 0.633-2.667 0.95-4 0.95v0c-2.8 0-4.883-0.71-6.25-2.13-1.367-1.413-2.05-3.203-2.05-5.37v0c0-2.4 0.81-4.227 2.43-5.48 1.613-1.247 3.72-1.87 6.32-1.87v0h6.25c0-2-0.317-3.7-0.95-5.1-0.633-1.4-2.083-2.1-4.35-2.1v0c-1.633 0-2.983 0.183-4.05 0.55-1.067 0.367-2.05 0.75-2.95 1.15v0c-0.167-0.5-0.35-1-0.55-1.5-0.2-0.5-0.4-1-0.6-1.5zM140 0l-1.15-2.65c-1.067 0.967-2.3 1.767-3.7 2.4-1.4 0.633-2.75 0.95-4.05 0.95v0c-2.833 0-4.907-0.81-6.22-2.43-1.32-1.613-1.98-3.653-1.98-6.12v0-16.4h3.95v15.95c0 1.633 0.4 2.983 1.2 4.05 0.8 1.067 2.017 1.6 3.65 1.6v0c0.933 0 2.033-0.267 3.3-0.8 1.267-0.533 2.433-1.283 3.5-2.25v0-18.55h3.95v24.25zM154.3 0h-3.95v-34.75l3.95-0.55zM172.3-3.15l0.9 3.05c-0.367 0.167-0.89 0.35-1.57 0.55-0.687 0.2-1.397 0.3-2.13 0.3v0c-2.067 0-3.723-0.6-4.97-1.8-1.253-1.2-1.88-2.95-1.88-5.25v0-14.55h-3.45l-0.05-3h3.5v-6.15l4-1.15v7.3h4.4l1.3 3h-5.7v14c0 1.233 0.267 2.24 0.8 3.02 0.533 0.787 1.417 1.18 2.65 1.18v0c0.367 0 0.767-0.06 1.2-0.18 0.433-0.113 0.767-0.22 1-0.32z" fill="#ffffff" fill-rule="nonzero" stroke="none" stroke-width="1" stroke-linecap="butt" stroke-linejoin="miter" stroke-miterlimit="10" stroke-dasharray="" stroke-dashoffset="0" font-family="none" font-weight="none" font-size="none" text-anchor="none" style="mix-blend-mode: normal" data-fill-palette-color="primary" opacity="1"></path><path xmlns="http://www.w3.org/2000/svg" d="M8.9 39.05h-3.9v-34h9.25c3.567 0 6.55 0.79 8.95 2.37 2.4 1.587 3.6 4.263 3.6 8.03v0c-0.033 3.733-1.333 6.457-3.9 8.17-2.567 1.72-5.633 2.58-9.2 2.58v0h-4.8zM14.25 8.4v0h-5.35v14.45h5c2.467 0 4.543-0.56 6.23-1.68 1.68-1.113 2.537-2.97 2.57-5.57v0c0-2.733-0.757-4.617-2.27-5.65-1.52-1.033-3.58-1.55-6.18-1.55zM37.15 3.75v14.25c1.033-1.1 2.317-2.027 3.85-2.78 1.533-0.747 3-1.12 4.4-1.12v0c2.8 0 4.86 0.807 6.18 2.42 1.313 1.62 1.97 3.647 1.97 6.08v0 16.4h-3.95v-15.85c0-1.633-0.39-2.983-1.17-4.05-0.787-1.067-2.03-1.617-3.73-1.65v0c-1.033 0-2.283 0.35-3.75 1.05-1.467 0.7-2.733 1.667-3.8 2.9v0 17.65h-3.95v-34.8zM63.4 32.15v0c0 1.033 0.36 2.017 1.08 2.95 0.713 0.933 1.87 1.4 3.47 1.4v0c1.4 0 2.683-0.35 3.85-1.05 1.167-0.7 2.167-1.533 3-2.5v0-5.55h-6.4c-1.633 0-2.877 0.473-3.73 1.42-0.847 0.953-1.27 2.063-1.27 3.33zM61.3 16.3v0c0.933-0.633 2.25-1.15 3.95-1.55 1.7-0.4 3.05-0.6 4.05-0.6v0c2.8 0 5.077 0.757 6.83 2.27 1.747 1.52 2.62 3.497 2.62 5.93v0 16.7h-2.4l-1.05-2.45c-0.833 0.767-1.917 1.467-3.25 2.1-1.333 0.633-2.667 0.95-4 0.95v0c-2.8 0-4.883-0.71-6.25-2.13-1.367-1.413-2.05-3.203-2.05-5.37v0c0-2.4 0.81-4.227 2.43-5.48 1.613-1.247 3.72-1.87 6.32-1.87v0h6.25c0-2-0.317-3.7-0.95-5.1-0.633-1.4-2.083-2.1-4.35-2.1v0c-1.633 0-2.983 0.183-4.05 0.55-1.067 0.367-2.05 0.75-2.95 1.15v0c-0.167-0.5-0.35-1-0.55-1.5-0.2-0.5-0.4-1-0.6-1.5zM104.95 18.05v0c1.033-1.1 2.333-2.033 3.9-2.8 1.567-0.767 3.067-1.15 4.5-1.15v0c2.8 0 4.867 0.807 6.2 2.42 1.333 1.62 2 3.647 2 6.08v0 16.4h-4v-15.85c0-1.633-0.4-2.983-1.2-4.05-0.8-1.067-2.033-1.617-3.7-1.65v0c-1.067 0-2.207 0.3-3.42 0.9-1.22 0.6-2.363 1.45-3.43 2.55v0c0.033 0.3 0.06 0.59 0.08 0.87 0.013 0.287 0.02 0.563 0.02 0.83v0 16.4h-4v-15.85c0-1.633-0.39-2.983-1.17-4.05-0.787-1.067-1.997-1.617-3.63-1.65v0c-1.1 0-2.25 0.29-3.45 0.87-1.2 0.587-2.333 1.447-3.4 2.58v0 18.15h-3.95v-24.25h2.4l1.15 2.75c1.067-1 2.317-1.827 3.75-2.48 1.433-0.647 2.817-0.97 4.15-0.97v0c1.8 0 3.31 0.357 4.53 1.07 1.213 0.72 2.103 1.68 2.67 2.88zM138.5 23.8l0.45 3.15h-12.55l-0.45-3.15zM153.75 39.05h-3.9l-9.25-23.65 4-0.6 7.25 18.9 6.95-18.9h3.95zM169.8 32.15v0c0 1.033 0.36 2.017 1.08 2.95 0.713 0.933 1.87 1.4 3.47 1.4v0c1.4 0 2.683-0.35 3.85-1.05 1.167-0.7 2.167-1.533 3-2.5v0-5.55h-6.4c-1.633 0-2.877 0.473-3.73 1.42-0.847 0.953-1.27 2.063-1.27 3.33zM167.7 16.3v0c0.933-0.633 2.25-1.15 3.95-1.55 1.7-0.4 3.05-0.6 4.05-0.6v0c2.8 0 5.077 0.757 6.83 2.27 1.747 1.52 2.62 3.497 2.62 5.93v0 16.7h-2.4l-1.05-2.45c-0.833 0.767-1.917 1.467-3.25 2.1-1.333 0.633-2.667 0.95-4 0.95v0c-2.8 0-4.883-0.71-6.25-2.13-1.367-1.413-2.05-3.203-2.05-5.37v0c0-2.4 0.807-4.227 2.42-5.48 1.62-1.247 3.73-1.87 6.33-1.87v0h6.25c0-2-0.317-3.7-0.95-5.1-0.633-1.4-2.083-2.1-4.35-2.1v0c-1.633 0-2.983 0.183-4.05 0.55-1.067 0.367-2.05 0.75-2.95 1.15v0c-0.167-0.5-0.35-1-0.55-1.5-0.2-0.5-0.4-1-0.6-1.5zM195.1 14.8l1.25 3.5c1.033-1.167 2.367-2.16 4-2.98 1.633-0.813 3.167-1.22 4.6-1.22v0c2.767 0 4.817 0.807 6.15 2.42 1.333 1.62 2 3.647 2 6.08v0 16.4h-3.95v-15.85c0-1.633-0.4-2.983-1.2-4.05-0.8-1.067-2.033-1.617-3.7-1.65v0c-1.033 0-2.29 0.35-3.77 1.05-1.487 0.7-2.763 1.667-3.83 2.9v0 17.65h-3.95v-24.25z" fill="#ffffff" fill-rule="nonzero" stroke="none" stroke-width="1" stroke-linecap="butt" stroke-linejoin="miter" stroke-miterlimit="10" stroke-dasharray="" stroke-dashoffset="0" font-family="none" font-weight="none" font-size="none" text-anchor="none" style="mix-blend-mode: normal" data-fill-palette-color="primary" opacity="1"></path></g></svg></g></svg></g></svg></g></svg></g><g transform="matrix(1,0,0,1,0,0.3710969726093083)"><svg viewBox="0 0 114.85934729553173 148.43878904372897" height="148.43878904372897" width="114.85934729553173"><g><svg xmlns="http://www.w3.org/2000/svg" xmlns:xlink="http://www.w3.org/1999/xlink" version="1.1" x="0" y="0" viewBox="12.982999801635742 1 75.68599700927734 97.81300354003906" enable-background="new 0 0 100 100" xml:space="preserve" height="148.43878904372897" width="114.85934729553173" class="icon-icon-0" data-fill-palette-color="accent" id="icon-0"><g fill="#915eff" data-fill-palette-color="accent"><polygon fill-rule="evenodd" clip-rule="evenodd" points="12.983,10.59 30.001,98.813 24.129,39.764 53.15,37.872 53.096,27.989    64.549,1 53.622,18.977  " fill="#915eff" data-fill-palette-color="accent"></polygon><polygon fill-rule="evenodd" clip-rule="evenodd" points="59.389,54.548 64.549,1.007 55.809,40.723 36.197,41.768 37.767,62.23    30.001,98.813 42.058,58.914  " fill="#915eff" data-fill-palette-color="accent"></polygon><polygon fill-rule="evenodd" clip-rule="evenodd" points="62.8,67.182 63.349,56.729 47.37,60.484 47.338,72.281 30.001,98.813    51.681,71.197  " fill="#915eff" data-fill-palette-color="accent"></polygon><polygon fill-rule="evenodd" clip-rule="evenodd" points="65.711,62.394 80.552,57.663 82.061,45.131 66.162,47.226  " fill="#915eff" data-fill-palette-color="accent"></polygon><polygon fill-rule="evenodd" clip-rule="evenodd" points="72.07,44.502 83.058,43.085 84.639,32.807 76.56,32.434 64.549,1    72.979,31.967  " fill="#915eff" data-fill-palette-color="accent"></polygon><polygon fill-rule="evenodd" clip-rule="evenodd" points="87.413,31.294 88.669,21.788 79.125,19.094 64.549,1 79.032,23.437    78.61,30.437  " fill="#915eff" data-fill-palette-color="accent"></polygon></g></svg></g></svg></g></svg></g><defs></defs></svg><rect width="395.52" height="107.4933387312201" fill="none" stroke="none" visibility="hidden"></rect></g></svg></g></svg>